<svg width="36" height="34" viewBox="0 0 36 34" fill="none" xmlns="http://www.w3.org/2000/svg">
<g id="Search">
<g id="Layer 2">
<path id="search" d="M31.065 27.3275L25.965 22.525C27.6105 20.5452 28.5033 18.1003 28.5 15.5833C28.5 13.3418 27.7962 11.1506 26.4776 9.28688C25.1591 7.42312 23.2849 5.9705 21.0922 5.1127C18.8995 4.25491 16.4867 4.03047 14.1589 4.46777C11.8312 4.90507 9.69295 5.98447 8.01472 7.56946C6.33649 9.15446 5.1936 11.1739 4.73058 13.3723C4.26756 15.5708 4.5052 17.8495 5.41345 19.9204C6.3217 21.9913 7.85977 23.7613 9.83316 25.0067C11.8066 26.252 14.1266 26.9167 16.5 26.9167C19.165 26.9198 21.7537 26.0766 23.85 24.5225L28.935 29.3392C29.0745 29.472 29.2404 29.5773 29.4231 29.6493C29.6059 29.7212 29.802 29.7582 30 29.7582C30.198 29.7582 30.3941 29.7212 30.5769 29.6493C30.7597 29.5773 30.9256 29.472 31.065 29.3392C31.2056 29.2075 31.3172 29.0508 31.3933 28.8782C31.4695 28.7055 31.5087 28.5204 31.5087 28.3333C31.5087 28.1463 31.4695 27.9612 31.3933 27.7885C31.3172 27.6159 31.2056 27.4592 31.065 27.3275ZM7.50001 15.5833C7.50001 13.9022 8.02785 12.2588 9.01678 10.861C10.0057 9.46317 11.4113 8.37371 13.0559 7.73036C14.7004 7.08702 16.51 6.91869 18.2558 7.24666C20.0016 7.57464 21.6053 8.38418 22.864 9.57293C24.1226 10.7617 24.9798 12.2762 25.3271 13.9251C25.6743 15.5739 25.4961 17.283 24.8149 18.8361C24.1337 20.3893 22.9802 21.7168 21.5001 22.6508C20.0201 23.5848 18.28 24.0833 16.5 24.0833C14.1131 24.0833 11.8239 23.1878 10.136 21.5937C8.44822 19.9997 7.50001 17.8377 7.50001 15.5833Z" fill="white"/>
</g>
</g>
</svg>
